<?xml version="1.0" standalone="no"?><!DOCTYPE svg PUBLIC "-//W3C//DTD SVG 1.1//EN" "http://www.w3.org/Graphics/SVG/1.1/DTD/svg11.dtd"><svg t="1780901349709" class="icon" viewBox="0 0 1024 1024" version="1.1" xmlns="http://www.w3.org/2000/svg" p-id="10308" xmlns:xlink="http://www.w3.org/1999/xlink" width="200" height="200"><path d="M895.09 174.585H717.042v-71.022c0-15.424-12.492-27.93-27.93-27.93-15.437 0-27.93 12.506-27.93 27.93v71.022H392.473v-71.022c0-15.424-12.491-27.93-27.93-27.93-15.438 0-27.93 12.506-27.93 27.93v71.022H128.402c-34.884 0-63.277 28.38-63.277 63.278v647.362c0 34.898 28.393 63.278 63.277 63.278h766.69c34.883 0 63.276-28.38 63.276-63.278V237.863c0-34.898-28.392-63.278-63.277-63.278z m7.42 710.64a7.427 7.427 0 0 1-7.42 7.42H128.4a7.427 7.427 0 0 1-7.418-7.42V237.863a7.427 7.427 0 0 1 7.419-7.42h208.214v64.696c0 15.424 12.491 27.93 27.93 27.93 15.438 0 27.929-12.506 27.929-27.93v-64.695h268.71v64.695c0 15.424 12.49 27.93 27.93 27.93 15.436 0 27.929-12.506 27.929-27.93v-64.695H895.09a7.427 7.427 0 0 1 7.42 7.419v647.362h-0.002zM238.673 491.724a51.823 51.823 0 1 0 103.646 0c0-28.621-23.202-51.823-51.823-51.823-28.62 0-51.823 23.202-51.823 51.823z m228.781 0c0 28.62 23.202 51.823 51.823 51.823s51.823-23.202 51.823-51.823S547.9 439.9 519.278 439.9c-28.62 0-51.823 23.202-51.823 51.823z m228.782 0a51.823 51.823 0 1 0 103.646 0 51.823 51.823 0 0 0-103.646 0zM238.674 693.997a51.823 51.823 0 1 0 103.646 0c0-28.62-23.202-51.823-51.823-51.823-28.62 0-51.823 23.202-51.823 51.823z m228.78 0c0 28.622 23.203 51.824 51.824 51.824 28.622 0 51.824-23.202 51.824-51.824 0-28.621-23.202-51.824-51.824-51.824-28.621 0-51.824 23.203-51.824 51.824z m228.782 0a51.824 51.824 0 1 0 103.648 0 51.824 51.824 0 1 0-103.648 0z" fill="#3E3A39" p-id="10309"></path></svg>