<?xml version="1.0" standalone="no"?><!DOCTYPE svg PUBLIC "-//W3C//DTD SVG 1.1//EN" "http://www.w3.org/Graphics/SVG/1.1/DTD/svg11.dtd"><svg t="1781072593342" class="icon" viewBox="0 0 1024 1024" version="1.1" xmlns="http://www.w3.org/2000/svg" p-id="28596" xmlns:xlink="http://www.w3.org/1999/xlink" width="200" height="200"><path d="M625.842018 489.944615V400.147692s0-6.301538-9.452307-6.301538a21.267692 21.267692 0 0 0-14.966154 0l-157.538462 117.366154a29.932308 29.932308 0 0 0-11.815384 26.781538 23.630769 23.630769 0 0 0 10.24 20.48l157.538461 107.913846a35.446154 35.446154 0 0 0 18.116923 0 7.876923 7.876923 0 0 0 8.664616-8.664615V574.227692l157.538461-4.726154S904.685095 583.68 904.685095 630.153846c0 0-3.938462-141.784615-126.030769-140.209231z m164.627693 359.187693v89.796923s0 4.726154 11.027692 6.301538a14.966154 14.966154 0 0 0 12.603077 0l157.538462-113.427692a28.356923 28.356923 0 0 0 14.178461-22.843077 24.418462 24.418462 0 0 0-11.027692-20.48l-157.538462-106.338462a16.541538 16.541538 0 0 0-14.966154 0c-11.027692 0-11.815385 8.664615-11.815384 8.664616v80.344615h-157.538462S510.838942 756.972308 510.838942 708.923077c0 0 0 142.572308 126.030769 140.209231z" fill="#515151" p-id="28597"></path><path d="M760.537403 0H106.752788A70.892308 70.892308 0 0 0 38.223557 72.467692v878.276923a70.892308 70.892308 0 0 0 68.529231 73.255385h393.846154A384.393846 384.393846 0 0 1 329.669711 708.923077a393.846154 393.846154 0 0 1 97.673846-278.055385 351.310769 351.310769 0 0 1 251.273846-120.516923h10.24a344.221538 344.221538 0 0 1 137.058462 30.72V72.467692A70.892308 70.892308 0 0 0 760.537403 0zM312.34048 438.744615h-102.4a33.870769 33.870769 0 0 1-33.870769-17.32923 39.384615 39.384615 0 0 1 0-39.384616 33.083077 33.083077 0 0 1 33.870769-16.541538h102.4a32.295385 32.295385 0 0 1 33.083077 16.541538 39.384615 39.384615 0 0 1 0 39.384616 33.083077 33.083077 0 0 1-33.083077 17.32923z m341.070769-219.766153H209.94048a32.295385 32.295385 0 0 1-25.993846-9.452308 36.233846 36.233846 0 0 1-9.452308-26.781539 34.658462 34.658462 0 0 1 34.658462-36.233846h444.258461a29.932308 29.932308 0 0 1 25.206154 11.027693 36.233846 36.233846 0 0 1 9.452308 26.781538 34.658462 34.658462 0 0 1-9.452308 25.993846 30.72 30.72 0 0 1-25.206154 8.664616z" fill="#515151" p-id="28598"></path></svg>