<?xml version="1.0" standalone="no"?><!DOCTYPE svg PUBLIC "-//W3C//DTD SVG 1.1//EN" "http://www.w3.org/Graphics/SVG/1.1/DTD/svg11.dtd"><svg t="1781072116639" class="icon" viewBox="0 0 1024 1024" version="1.1" xmlns="http://www.w3.org/2000/svg" p-id="6474" xmlns:xlink="http://www.w3.org/1999/xlink" width="200" height="200"><path d="M515.413333 897.706667H271.36c-51.2 0-93.866667-42.666667-93.866667-93.866667V215.04c0-51.2 42.666667-93.866667 93.866667-93.866667h426.666667c51.2 0 93.866667 42.666667 93.866666 93.866667V443.733333c0 13.653333-11.946667 25.6-25.6 25.6s-25.6-11.946667-25.6-25.6V215.04c0-23.893333-18.773333-42.666667-42.666666-42.666667h-426.666667c-23.893333 0-42.666667 18.773333-42.666667 42.666667v588.8c0 23.893333 18.773333 42.666667 42.666667 42.666667h244.053333c13.653333 0 25.6 11.946667 25.6 25.6s-11.946667 25.6-25.6 25.6z" fill="#0183FF" p-id="6475"></path><path d="M462.506667 344.746667h-153.6c-13.653333 0-25.6-11.946667-25.6-25.6s11.946667-25.6 25.6-25.6h153.6c13.653333 0 25.6 11.946667 25.6 25.6s-11.946667 25.6-25.6 25.6zM496.64 481.28h-187.733333c-13.653333 0-25.6-11.946667-25.6-25.6s11.946667-25.6 25.6-25.6h187.733333c13.653333 0 25.6 11.946667 25.6 25.6s-11.946667 25.6-25.6 25.6zM530.773333 617.813333h-221.866666c-13.653333 0-25.6-11.946667-25.6-25.6s11.946667-25.6 25.6-25.6h221.866666c13.653333 0 25.6 11.946667 25.6 25.6s-11.946667 25.6-25.6 25.6zM742.4 902.826667c-107.52 0-194.56-87.04-194.56-194.56S634.88 512 742.4 512s194.56 87.04 194.56 194.56-87.04 196.266667-194.56 196.266667z m0-339.626667c-78.506667 0-143.36 64.853333-143.36 143.36s64.853333 143.36 143.36 143.36 143.36-64.853333 143.36-143.36-64.853333-143.36-143.36-143.36z" fill="#0183FF" p-id="6476"></path><path d="M713.386667 773.12l-59.733334-59.733333c-6.826667-6.826667-6.826667-17.066667 0-23.893334 6.826667-6.826667 17.066667-6.826667 23.893334 0l59.733333 59.733334c6.826667 6.826667 6.826667 17.066667 0 23.893333-5.12 6.826667-17.066667 6.826667-23.893333 0z" fill="#0183FF" p-id="6477"></path><path d="M846.506667 665.6l-109.226667 109.226667c-6.826667 6.826667-17.066667 6.826667-23.893333 0-6.826667-6.826667-6.826667-17.066667 0-23.893334l109.226666-109.226666c6.826667-6.826667 17.066667-6.826667 23.893334 0 6.826667 6.826667 6.826667 17.066667 0 23.893333z" fill="#0183FF" p-id="6478"></path></svg>