<?xml version="1.0" standalone="no"?><!DOCTYPE svg PUBLIC "-//W3C//DTD SVG 1.1//EN" "http://www.w3.org/Graphics/SVG/1.1/DTD/svg11.dtd"><svg t="1781072546430" class="icon" viewBox="0 0 2598 1024" version="1.1" xmlns="http://www.w3.org/2000/svg" p-id="26167" xmlns:xlink="http://www.w3.org/1999/xlink" width="507.421875" height="200"><path d="M1115.816443 950.505485c-100.248599-16.870984-142.656208-48.244743-157.058919-116.192312-8.565577-40.416313-6.150671-84.521694 13.732274-250.599818 27.61798-230.726879 58.141186-446.053733 68.174384-480.903088 1.941264-6.747726 8.365446-19.506033 14.275961-28.351791C1088.331883 24.505954 1235.73785-3.30215 1351.132977 18.588769c65.509316 12.428091 121.659205 42.010684 154.250424 81.262905 15.823635 19.059075 37.204221 62.974332 41.994006 86.266163 9.586241 46.603674 1.25415 116.015531-18.635466 155.271088-10.30671 20.339909-32.96813 50.923153-39.619127 53.47815-9.883101 3.792469-4.209407 11.123909 15.943714 20.623427 47.017277 22.157759 96.222645 68.701394 117.586553 111.22241 29.929485 59.565446 33.244977 147.68615 8.118619 215.707101-41.313564 111.842814-166.962033 190.790879-336.505746 211.427648-44.969277 5.476899-136.215349 3.769121-178.446175-3.342176zM1257.485342 762.322971c81.893316-12.418085 131.132039-41.036717 155.301108-90.258763 8.372117-17.04443 9.806384-23.882215 9.806384-46.657042 0-23.101707-1.234137-28.778736-9.169303-42.28086-11.550853-19.646124-29.025564-34.158906-52.537538-43.621733-16.177199-6.514241-24.455922-7.388143-70.045602-7.404821-52.307388-0.020013-86.713121 5.036612-86.733134 12.754971 0 2.108039-3.745772 45.863192-8.315413 97.229968-4.569642 51.366775-8.315414 100.522111-8.328756 109.237785L1187.439739 767.166124l19.179154-0.020013c10.550202-0.010007 33.438436-2.18142 50.866449-4.82314z m-8.995857-414.199662c46.296808-10.486827 76.149577-27.774749 90.625668-52.480833 24.916221-42.507674 6.187362-92.153329-38.538423-102.16318-14.609511-3.268795-23.622046-3.30215-42.21415-0.166775-36.166879 6.100638-34.605863 3.255453-39.625798 72.197003-5.870489 80.672521-5.820456 88.053993 0.567036 88.053994 2.848521 0 15.980404-2.448261 29.185667-5.436873zM69.611987 939.221472C10.840391 916.636769-1.350879 875.91359 11.861055 746.352573c22.548013-221.160651 89.891857-586.698632 118.643909-643.99927 27.384495-54.578866 69.521928-77.844013 135.958515-75.062202 79.431713 3.328834 112.953537 42.504339 163.74327 191.35458 8.795726 25.776782 23.001642 72.307075 31.567218 103.400651 21.640756 78.561147 18.448678 74.792026 35.17957 41.527036 41.216834-81.960026 99.888365-186.221238 131.362189-233.438645 39.969355-59.965707 65.649407-82.140143 106.912938-92.32344 55.019153-13.575505 119.871375 14.235935 141.755623 60.792912 17.738215 37.741238 18.615453 49.118645 18.375296 238.285134-0.286853 222.218007-12.808339 469.505668-26.433876 522.006515-10.913772 42.057381-43.194788 73.371101-84.471661 81.940013-29.185668 6.057277-79.208235 2.651726-97.340039-6.630984-44.622384-22.844873-55.916404-57.64086-52.033877-160.364404 2.304834-60.986371 13.795648-239.092326 17.377981-269.342019 1.134072-9.632938 1.300847-17.511401 0.360234-17.511401-0.940612 0-10.907101 18.025068-22.147752 40.052743-40.412977 79.188221-78.494436 141.28198-102.196534 166.618475-28.518567 30.486515-72.817407 39.815922-111.025616 23.381889-32.230984-13.865694-40.052743-27.664678-82.807244-146.041746-31.587231-87.463609-36.293629-98.380717-39.07544-90.682371-2.224782 6.160678-15.163205 101.132508-28.628638 210.136808-13.435414 108.737459-22.59471 164.176886-30.833408 186.611492-8.745694 23.805498-34.795987 50.10929-57.881016 58.438045-22.137746 7.99187-91.329459 10.363414-108.607375 3.722424z m1769.058397-4.316143c-22.464625-6.620977-44.495635-25.893524-53.488156-46.790463-21.477316-49.929173-19.649459-100.965733 19.245863-537.886853 3.672391-41.276873 6.694358-81.216208 6.714372-88.751114l0.033355-13.70559-69.211727-1.877889c-76.883388-2.088026-98.967765-6.11398-114.344443-20.846905-29.409147-28.17501-27.321121-115.141629 3.662385-152.596013 18.805577-22.731466 23.562007-24.038984 124.857954-34.242294 71.483205-7.204691 177.512235-12.207948 293.077472-13.832338 160.681277-2.258137 165.16086-1.741134 188.74288 21.844221 19.18916 19.18916 27.731388 45.542984 27.798097 85.762502 0.063375 36.216912-7.921824 60.709524-26.537276 81.416339-21.067049 23.431922-32.854723 26.600651-114.507883 30.803387-37.607818 1.934593-68.684717 3.749107-69.058293 4.032626-0.977303 0.733811-16.297277 254.712495-24.259127 402.188508-3.715752 68.794788-8.295401 138.590228-10.176626 155.100977-9.24602 81.09613-32.954788 114.881459-91.63299 130.551661-22.047687 5.890502-69.011596 5.286775-90.915857-1.167427z m512.857225 1.124065c-39.235544-10.800365-57.927713-28.418502-70.445863-66.386554-7.621629-23.128391-7.921824-27.698033-7.538241-114.150983 0.313537-70.179023 2.70843-116.842736 10.847062-211.4043 15.806958-183.646228 45.276143-409.900195 57.717576-443.16185 8.048573-21.504 25.419883-42.040704 43.274841-51.149968 31.370423-16.000417 97.61355-21.594059 132.62968-11.193954 22.357889 6.637655 43.675101 25.96357 54.115232 49.051935 7.584938 16.77759 7.875127 20.379935 7.715023 95.819049-0.206801 97.360052-12.328026 246.15359-40.059414 491.753485-19.52271 172.919244-23.612039 193.165759-44.619049 220.960521-14.282632 18.895635-35.863349 32.994814-60.57944 39.57243-21.787518 5.797107-62.534046 5.940534-83.057407 0.290189z" p-id="26168"></path></svg>