<?xml version="1.0" standalone="no"?><!DOCTYPE svg PUBLIC "-//W3C//DTD SVG 1.1//EN" "http://www.w3.org/Graphics/SVG/1.1/DTD/svg11.dtd"><svg t="1781072209779" class="icon" viewBox="0 0 1024 1024" version="1.1" xmlns="http://www.w3.org/2000/svg" p-id="8691" xmlns:xlink="http://www.w3.org/1999/xlink" width="200" height="200"><path d="M511.328 911.712c-4.416 0-8.864-1.024-12.928-3.04C480.64 899.776 63.328 687.488 63.328 368.544c0-141.952 115.52-257.44 257.504-257.44 73.248 0 142.048 30.944 190.496 84.32 48.448-53.376 117.248-84.32 190.496-84.32 141.984 0 257.504 115.488 257.504 257.44 0 318.944-417.312 531.232-435.072 540.096C520.192 910.688 515.776 911.712 511.328 911.712L511.328 911.712zM320.832 168.896c-110.112 0-199.712 89.568-199.712 199.648 0 254.016 321.152 443.712 390.208 481.536 69.024-37.824 390.208-227.52 390.208-481.536 0-110.08-89.6-199.648-199.712-199.648-67.008 0-129.216 33.408-166.4 89.408-10.72 16.096-37.44 16.096-48.16 0C450.08 202.304 387.84 168.896 320.832 168.896L320.832 168.896zM320.832 168.896" fill="#222222" p-id="8692"></path></svg>