<?xml version="1.0" standalone="no"?><!DOCTYPE svg PUBLIC "-//W3C//DTD SVG 1.1//EN" "http://www.w3.org/Graphics/SVG/1.1/DTD/svg11.dtd"><svg t="1781072620890" class="icon" viewBox="0 0 1026 1024" version="1.1" xmlns="http://www.w3.org/2000/svg" p-id="29674" xmlns:xlink="http://www.w3.org/1999/xlink" width="200.390625" height="200"><path d="M504.701426 290.743214c-123.575864 0-224.156219 100.580355-224.15622 224.15622-0.199961 123.775825 100.580355 224.35618 224.15622 224.35618s224.156219-100.580355 224.156219-224.156219c0-123.975786-100.580355-224.35618-224.156219-224.356181z m0 388.524117c-90.782269 0-164.367897-73.785589-164.367897-164.567858 0-90.582308 73.785589-164.567858 164.367897-164.567858 90.582308 0 164.367897 73.785589 164.367896 164.567858 0 90.98223-73.785589 164.567858-164.367896 164.567858z m494.103495-269.947276c-21.19586-1.999609-85.783245-15.796915-102.579965-52.589729-14.79711-32.193712 9.598125-77.384886 32.593634-109.578598l14.397188-20.196055-139.972661-147.371217-21.395822 15.996876c-19.196251 14.397188-81.983988 51.589924-117.776996 34.793204-28.794376-13.797305-36.592853-62.787737-38.192541-101.780121L624.877954 0h-221.95665l-0.999804 28.594415c-1.399727 38.792423-9.398164 87.982816-38.192541 101.780121C327.93595 147.371217 265.148213 109.97852 245.951963 95.581332l-21.395822-15.996876-139.972661 147.371217 14.397188 20.196055c22.995509 32.193712 47.390744 77.384886 32.793595 109.378637-16.796719 36.792814-79.784417 50.390158-102.579965 52.78969L1.999609 411.919547v199.960945l27.194689 2.599492c22.795548 2.19957 85.783245 15.996876 102.579965 52.78969 14.597149 32.193712-9.598125 77.384886-32.793595 109.378637l-14.397188 20.196055 139.972661 147.371217 21.395822-15.996876c19.196251-14.397188 81.983988-51.589924 117.776996-34.593243 28.794376 13.797305 36.592853 62.787737 38.192541 101.58016l1.199765 28.794376h221.756689l0.999804-28.794376c1.599688-38.792423 9.398164-87.982816 38.192541-101.58016 35.793009-16.99668 98.580746 20.196055 117.776996 34.593243l21.395822 15.996876 139.972661-147.371217-14.397188-19.996094c-22.995509-32.393673-47.390744-77.584847-32.793595-109.578598 16.99668-36.792814 81.384105-50.590119 102.579965-52.589729l27.194689-2.599492V411.919547l-26.994728-2.599492zM966.211287 501.901972v57.388792c-36.792814 7.798477-99.38059 28.794376-124.375708 82.983792-19.196251 41.591877-10.997852 91.582113 24.595196 148.570982l-70.986135 74.585433c-34.593244-20.795938-101.180238-52.389768-156.969342-25.994923-39.192345 18.596368-62.787737 60.388205-70.186292 124.775629h-109.178676c-7.398555-64.187463-30.993946-105.979301-70.186292-124.775629-55.789104-26.394845-122.376098 5.198985-156.969342 25.994923l-70.986135-74.785394c35.393087-56.988869 43.791447-106.979106 24.595196-148.770943-24.995118-54.189416-87.582894-74.985354-124.375708-82.783831v-94.581527c36.792814-7.798477 99.38059-28.794376 124.375708-82.983793 19.196251-41.591877 10.997852-91.582113-24.595196-148.570982L231.954696 158.369069c34.593244 20.995899 101.180238 52.389768 156.769381 25.994922 39.192345-18.596368 62.787737-60.388205 70.186292-124.575668h109.178676c7.398555 64.187463 30.993946 105.979301 70.186292 124.575668 55.789104 26.394845 122.376098-4.999024 156.769381-25.994922l70.986135 74.785393c-35.393087 57.18883-43.791447 106.979106-24.595196 148.770943 24.995118 54.189416 87.582894 74.985354 124.375708 82.983792V501.901972h0.399922z" fill="#494949" p-id="29675"></path></svg>