<?xml version="1.0" standalone="no"?><!DOCTYPE svg PUBLIC "-//W3C//DTD SVG 1.1//EN" "http://www.w3.org/Graphics/SVG/1.1/DTD/svg11.dtd"><svg t="1781072529512" class="icon" viewBox="0 0 1024 1024" version="1.1" xmlns="http://www.w3.org/2000/svg" p-id="24754" xmlns:xlink="http://www.w3.org/1999/xlink" width="200" height="200"><path d="M821.344 721.424a397.872 397.872 0 0 1-213.314 137.03L539.282 954h-61.416l-61.22-95.374A396.21 396.21 0 0 1 116 474.106C116 255.692 293.644 78 512 78s396 177.692 396 396.106a397.284 397.284 0 0 1-86.656 247.318zM512 150.02c-178.654 0-324 145.384-324 324.086 0 152.97 108.508 286.442 258 317.366l14.772 2.528 49.458 77.048 55.136-76.628 21.892-5A322.812 322.812 0 0 0 836 474.106C836 295.4 690.654 150.02 512 150.02zM713 522a52 52 0 1 1 52-52 52 52 0 0 1-52 52zM512 522a52 52 0 1 1 52-52 52 52 0 0 1-52 52z m-201 0a52 52 0 1 1 52-52 52 52 0 0 1-52 52z" p-id="24755"></path></svg>