<?xml version="1.0" standalone="no"?><!DOCTYPE svg PUBLIC "-//W3C//DTD SVG 1.1//EN" "http://www.w3.org/Graphics/SVG/1.1/DTD/svg11.dtd"><svg t="1781072329355" class="icon" viewBox="0 0 1024 1024" version="1.1" xmlns="http://www.w3.org/2000/svg" p-id="13876" xmlns:xlink="http://www.w3.org/1999/xlink" width="200" height="200"><path d="M243.029333 638.244571l63.097905-35.693714a217.526857 217.526857 0 1 1 377.904762 2.340572l62.659048 36.425142a290.084571 290.084571 0 1 0-503.710477-3.072zM459.483429 60.65981a36.278857 36.278857 0 0 1 72.508952 0V133.12a36.278857 36.278857 0 1 1-72.508952 0V60.65981z m318.268952 101.814857a36.230095 36.230095 0 0 1 51.297524 51.248762L777.752381 264.97219A36.230095 36.230095 0 1 1 726.552381 213.723429l51.248762-51.248762z m-564.028952 0a36.230095 36.230095 0 1 0-51.248762 51.248762l51.248762 51.248761a36.230095 36.230095 0 0 0 51.248761-51.248761L213.723429 162.474667zM930.864762 459.483429a36.278857 36.278857 0 1 1 0 72.508952h-72.557714a36.278857 36.278857 0 1 1 0-72.508952h72.557714z m-797.744762 0a36.278857 36.278857 0 0 1 0 72.508952H60.708571a36.278857 36.278857 0 1 1 0-72.508952H133.12z" fill="#515151" p-id="13877"></path><path d="M858.307048 677.010286a36.278857 36.278857 0 1 0 0-72.508953H133.168762a36.278857 36.278857 0 1 0 0 72.508953h725.138286z m-398.823619 72.557714a36.278857 36.278857 0 1 1 72.508952 0v181.296762a36.278857 36.278857 0 1 1-72.508952 0v-181.296762z" fill="#515151" p-id="13878"></path><path d="M449.097143 786.822095a36.278857 36.278857 0 1 1-51.785143-50.761143l71.094857-72.508952a36.230095 36.230095 0 0 1 51.248762-0.487619l73.97181 72.46019a36.278857 36.278857 0 1 1-50.712381 51.785143l-48.128-47.152762-45.689905 46.665143z" fill="#515151" p-id="13879"></path></svg>