<?xml version="1.0" standalone="no"?><!DOCTYPE svg PUBLIC "-//W3C//DTD SVG 1.1//EN" "http://www.w3.org/Graphics/SVG/1.1/DTD/svg11.dtd"><svg t="1780669938146" class="icon" viewBox="0 0 1024 1024" version="1.1" xmlns="http://www.w3.org/2000/svg" p-id="10462" xmlns:xlink="http://www.w3.org/1999/xlink" width="200" height="200"><path d="M874.666667 0a64 64 0 0 1 63.701333 57.856L938.666667 64V469.333333a42.666667 42.666667 0 0 1-85.034667 4.992L853.333333 469.333333V85.333333H85.333333v768h341.546667a42.666667 42.666667 0 0 1 42.368 37.674667l0.298667 4.992a42.666667 42.666667 0 0 1-37.717334 42.368l-4.949333 0.298667H64a64 64 0 0 1-63.701333-57.856L0 874.666667v-810.666667A64 64 0 0 1 57.856 0.298667L64 0h810.666667z" fill="#191919" p-id="10463"></path><path d="M426.666667 512h213.333333a42.666667 42.666667 0 0 0 0-85.333333h-213.333333a42.666667 42.666667 0 1 0 0 85.333333z m-213.333334 0h42.666667a42.666667 42.666667 0 0 0 0-85.333333H213.333333a42.666667 42.666667 0 1 0 0 85.333333z m213.333334 170.666667h128a42.666667 42.666667 0 0 0 0-85.333334h-128a42.666667 42.666667 0 0 0 0 85.333334z m-213.333334 0h42.666667a42.666667 42.666667 0 0 0 0-85.333334H213.333333a42.666667 42.666667 0 0 0 0 85.333334z m170.666667-384a42.666667 42.666667 0 0 0 42.666667 42.666666h213.333333a42.666667 42.666667 0 0 0 0-85.333333h-213.333333a42.666667 42.666667 0 0 0-42.666667 42.666667zM170.666667 298.666667a42.666667 42.666667 0 0 0 42.666666 42.666666h42.666667a42.666667 42.666667 0 1 0 0-85.333333H213.333333a42.666667 42.666667 0 0 0-42.666666 42.666667z" fill="#191919" p-id="10464"></path><path d="M597.333333 768m42.666667 0l341.333333 0q42.666667 0 42.666667 42.666667l0 0q0 42.666667-42.666667 42.666666l-341.333333 0q-42.666667 0-42.666667-42.666666l0 0q0-42.666667 42.666667-42.666667Z" fill="#191919" p-id="10465"></path><path d="M853.333333 597.333333m0 42.666667l0 341.333333q0 42.666667-42.666666 42.666667l0 0q-42.666667 0-42.666667-42.666667l0-341.333333q0-42.666667 42.666667-42.666667l0 0q42.666667 0 42.666666 42.666667Z" fill="#191919" p-id="10466"></path></svg>