<?xml version="1.0" standalone="no"?><!DOCTYPE svg PUBLIC "-//W3C//DTD SVG 1.1//EN" "http://www.w3.org/Graphics/SVG/1.1/DTD/svg11.dtd"><svg t="1780669962461" class="icon" viewBox="0 0 1024 1024" version="1.1" xmlns="http://www.w3.org/2000/svg" p-id="11693" xmlns:xlink="http://www.w3.org/1999/xlink" width="200" height="200"><path d="M936.850689 1023.832H87.148311A87.517936 87.517936 0 0 1 0.000375 936.684064V196.076606a87.517936 87.517936 0 0 1 87.147936-87.148936h130.705904v54.46396a81.59394 81.59394 0 0 0 81.694941 81.69494h10.905992a81.59394 81.59394 0 0 0 81.69494-81.69494v-54.46396h239.665824v54.46396a81.59394 81.59394 0 0 0 81.69494 81.69494h10.905992a81.59394 81.59394 0 0 0 81.694941-81.69494v-54.46396h130.705904a87.517936 87.517936 0 0 1 87.147936 87.148936v740.741458a87.517936 87.517936 0 0 1-87.147936 87.147936z m21.778984-697.185489H70.823323v637.269533h887.83935z" p-id="11694"></path><path d="M294.13016 0.00075h21.777984a37.901972 37.901972 0 0 1 38.137972 38.138972v136.2249a37.901972 37.901972 0 0 1-38.137972 38.137972h-21.778984a37.901972 37.901972 0 0 1-38.137972-38.137972V38.140722A37.901972 37.901972 0 0 1 294.13016 0.00075z m414.028696 0h21.777984a37.901972 37.901972 0 0 1 38.137972 38.138972v136.2249a37.901972 37.901972 0 0 1-38.137972 38.137972H708.159856a37.901972 37.901972 0 0 1-38.137972-38.137972V38.140722A37.901972 37.901972 0 0 1 708.057856 0.00075zM543.589977 419.382443a696.47749 696.47749 0 0 0 208.697847 156.859885l-23.965982 42.479969a660.124517 660.124517 0 0 1-200.989853-155.781886 668.90951 668.90951 0 0 1-200.989853 156.319885l-23.965982-43.017968a700.146487 700.146487 0 0 0 208.697847-156.859885zM355.661115 651.946273h342.062749v34.703974a321.798764 321.798764 0 0 1-186.279864 175.945871l-30.496977-39.753971A302.611778 302.611778 0 0 0 643.799903 694.292241H355.661115z m131.816903-112.191918a516.425622 516.425622 0 0 1 111.652918 63.180953l-23.966982 38.137972a496.060637 496.060637 0 0 0-112.763918-64.829952z" p-id="11695"></path></svg>