<?xml version="1.0" standalone="no"?><!DOCTYPE svg PUBLIC "-//W3C//DTD SVG 1.1//EN" "http://www.w3.org/Graphics/SVG/1.1/DTD/svg11.dtd"><svg t="1780966643471" class="icon" viewBox="0 0 1024 1024" version="1.1" xmlns="http://www.w3.org/2000/svg" p-id="8407" xmlns:xlink="http://www.w3.org/1999/xlink" width="200" height="200"><path d="M910.4 473.9c-46.9 83-153.4 167.9-169.5 186.4-16.1-18.5-122.6-103.4-169.6-186.4-13.3-21.6-20-48.4-16.9-77 5.7-51.1 44.3-92.4 91.3-97.9 39-4.6 74.3 14.5 95.2 45.7 20.9-31.2 56.1-50.3 95.1-45.7 47 5.5 85.5 46.8 91.2 97.9 3.2 28.6-3.5 55.5-16.8 77zM761.1 242H264.9c-40.2 0-72.8 33.8-72.8 75.6v344.3c0 41.8 32.6 75.6 72.8 75.6h496.2c40.2 0 72.8-33.8 72.8-75.6v-21.6c14.8-14.4 30.3-30 45.7-46.7v85.2c0 65.5-51.1 109.6-114.1 109.6H260.5c-63 0-114.1-44.1-114.1-109.6V310.4c0-65.5 51.1-118.6 114.1-118.6h505.1c48.1 0 89.1 31.1 105.9 75-18.3-2-35.8 0.3-51.9 6.1-13.4-18.7-34.5-30.9-58.5-30.9z m-399 591.5h251.3c11.6 0 21 10.2 21 22.8v0.5c0 12.6-9.4 22.8-21 22.8H362.1c-11.6 0-21-10.2-21-22.8v-0.5c0-12.5 9.4-22.8 21-22.8z" fill="#515151" p-id="8408"></path></svg>