<?xml version="1.0" standalone="no"?><!DOCTYPE svg PUBLIC "-//W3C//DTD SVG 1.1//EN" "http://www.w3.org/Graphics/SVG/1.1/DTD/svg11.dtd"><svg t="1780671226458" class="icon" viewBox="0 0 1024 1024" version="1.1" xmlns="http://www.w3.org/2000/svg" p-id="23436" xmlns:xlink="http://www.w3.org/1999/xlink" width="200" height="200"><path d="M389.12 303.664302c12.848302-32.613434 59.024906-32.613434 71.873208 0l42.563622 107.925736a193.207547 193.207547 0 0 0 108.853132 108.853132l107.925736 42.563622c32.613434 12.848302 32.613434 59.024906 0 71.873208l-107.925736 42.563623a193.207547 193.207547 0 0 0-108.853132 108.853132l-42.563622 107.925736c-12.848302 32.613434-59.024906 32.613434-71.873208 0l-42.563623-107.925736a193.207547 193.207547 0 0 0-108.853132-108.853132L129.777509 634.88c-32.613434-12.848302-32.613434-59.024906 0-71.873208l107.925736-42.563622a193.207547 193.207547 0 0 0 108.853132-108.853132l42.563623-107.925736z" fill="#bfbfbf" p-id="23437"></path><path d="M745.877736 106.99834c9.641057-24.460075 44.263849-24.460075 53.904906 0l17.775094 45.017358a96.603774 96.603774 0 0 0 54.407245 54.426566l45.017359 17.775094c24.479396 9.641057 24.479396 44.263849 0 53.904906l-45.017359 17.775094a96.603774 96.603774 0 0 0-54.407245 54.407246l-17.775094 45.017358c-9.641057 24.479396-44.263849 24.479396-53.904906 0l-17.775094-45.017358a96.603774 96.603774 0 0 0-54.407246-54.407246l-45.017358-17.775094c-24.479396-9.641057-24.479396-44.263849 0-53.904906l45.017358-17.775094a96.603774 96.603774 0 0 0 54.407246-54.407245l17.775094-45.017359z" fill="#bfbfbf" p-id="23438"></path></svg>