<?xml version="1.0" standalone="no"?><!DOCTYPE svg PUBLIC "-//W3C//DTD SVG 1.1//EN" "http://www.w3.org/Graphics/SVG/1.1/DTD/svg11.dtd"><svg t="1780966572613" class="icon" viewBox="0 0 1024 1024" version="1.1" xmlns="http://www.w3.org/2000/svg" p-id="7224" xmlns:xlink="http://www.w3.org/1999/xlink" width="200" height="200"><path d="M711.1168 0a85.3248 85.3248 0 0 1 85.3248 85.3248v361.8304l-56.9088 56.9088V85.3248c0-15.6928-12.7232-28.416-28.416-28.416H85.3248c-15.6928 0-28.416 12.7232-28.416 28.416v853.3504c0 15.6928 12.7232 28.416 28.416 28.416h625.792c15.6928 0 28.416-12.7232 28.416-28.416v-32.3328l56.9088-56.9088v89.2416A85.3248 85.3248 0 0 1 711.1168 1024H85.3248A85.3248 85.3248 0 0 1 0 938.6752V85.3248A85.3248 85.3248 0 0 1 85.3248 0h625.792z m226.56 412.1856l3.1488 3.0976 66.432 70.2464c21.4528 21.76 22.4256 57.0112 2.1248 80.8448l-3.0208 3.328-306.8672 324.6336c-5.7344 6.0928-12.8768 10.624-20.8384 11.6736l-3.456 0.2304-95.4112 3.9936h-1.8688c-9.344 0-18.688-2.9696-25.2672-9.9072-6.5792-6.0672-10.2912-14.4128-11.7248-23.68l-0.4864-4.0192v-2.944l3.7632-102.9632c0-8.6528 2.8416-17.3056 7.936-23.9872l2.3296-2.7392 306.7904-324.7104c21.4016-21.6576 54.7072-22.7072 76.3904-3.072zM599.9104 782.4128l-2.6112 70.912 68.992-2.8416 0.8192-0.8704-67.2-67.2z m215.68-239.4368l-181.8112 192.8192 72.3968 72.3968 181.8368-192.7936-72.4224-72.448z m-442.9824 54.3488a25.6 25.6 0 0 1 25.6 25.6v5.7088a25.6 25.6 0 0 1-25.6 25.6h-204.8a25.6 25.6 0 0 1-25.6-25.6v-5.7088a25.6 25.6 0 0 1 25.6-25.6h204.8z m526.0544-142.1824l-0.512 0.3072-43.52 46.08 72.448 72.448 37.8624-40.0896c2.2272-2.304 2.6112-5.2992 1.6384-7.296l-0.7168-1.0496-0.768-0.768-65.408-69.3248a1.024 1.024 0 0 0-1.024-0.3072zM514.816 398.2336a25.6 25.6 0 0 1 25.6 25.6v5.6832a25.6 25.6 0 0 1-25.6 25.6H167.8336a25.6 25.6 0 0 1-25.6-25.6v-5.6832a25.6 25.6 0 0 1 25.6-25.6H514.816z m0-199.1168a25.6 25.6 0 0 1 25.6 25.6V230.4a25.6 25.6 0 0 1-25.6 25.6H167.8336a25.6 25.6 0 0 1-25.6-25.6v-5.6832a25.6 25.6 0 0 1 25.6-25.6H514.816z" fill="#515151" p-id="7225"></path></svg>