<?xml version="1.0" standalone="no"?><!DOCTYPE svg PUBLIC "-//W3C//DTD SVG 1.1//EN" "http://www.w3.org/Graphics/SVG/1.1/DTD/svg11.dtd"><svg t="1780901093678" class="icon" viewBox="0 0 1024 1024" version="1.1" xmlns="http://www.w3.org/2000/svg" p-id="8475" xmlns:xlink="http://www.w3.org/1999/xlink" width="200" height="200"><path d="M512 1024a512 512 0 1 1 512-512 512 512 0 0 1-512 512zM512 73.142857a438.857143 438.857143 0 1 0 438.857143 438.857143 438.857143 438.857143 0 0 0-438.857143-438.857143z m180.809143 731.428572L512 715.410286 331.190857 804.571429l24.795429-208.384L219.428571 442.953143l196.096-39.643429L512 219.428571l96.402286 183.881143L804.571429 442.953143 668.086857 596.187429z m9.728-326.290286l-127.488-25.746286-62.683429-119.515428-62.683428 119.515428-127.488 25.746286 88.722285 99.620571-16.091428 135.387429 117.540571-57.929143 117.540572 57.929143-16.091429-135.387429z" fill="#969DA2" p-id="8476"></path></svg>