<?xml version="1.0" standalone="no"?><!DOCTYPE svg PUBLIC "-//W3C//DTD SVG 1.1//EN" "http://www.w3.org/Graphics/SVG/1.1/DTD/svg11.dtd"><svg t="1780900900035" class="icon" viewBox="0 0 1024 1024" version="1.1" xmlns="http://www.w3.org/2000/svg" p-id="3013" xmlns:xlink="http://www.w3.org/1999/xlink" width="200" height="200"><path d="M512.7 970.2c-61.9 0-121.9-12.1-178.4-36-54.6-23.1-103.6-56.1-145.7-98.2-42.1-42.1-75.1-91.1-98.2-145.7-23.9-56.5-36-116.5-36-178.4s12.1-121.9 36-178.4c23.1-54.6 56.1-103.6 98.2-145.7 42.1-42.1 91.1-75.1 145.7-98.2 56.5-23.9 116.5-36 178.4-36s121.9 12.1 178.4 36c54.6 23.1 103.6 56.1 145.7 98.2 42.1 42.1 75.1 91.1 98.2 145.7 23.9 56.5 36 116.5 36 178.4s-12.1 121.9-36 178.4c-23.1 54.6-56.1 103.6-98.2 145.7-42.1 42.1-91.1 75.1-145.7 98.2-56.5 23.9-116.5 36-178.4 36z m0-896.6C271 73.6 74.4 270.2 74.4 511.9S271 950.2 512.7 950.2 951 753.6 951 511.9 754.4 73.6 512.7 73.6z" fill="#3B4552" p-id="3014"></path><path d="M502.1 746.9c-58.1 0-112.8-22.6-153.9-63.8-41.1-41.1-63.8-95.8-63.8-153.9 0-58.1 22.6-112.8 63.8-153.9 41.1-41.1 95.8-63.8 153.9-63.8 49.8 0 96.7 16.4 135.6 47.4l-12.5 15.6c-35.3-28.1-77.9-43-123.1-43-52.8 0-102.4 20.6-139.8 57.9-37.3 37.3-57.9 87-57.9 139.8 0 52.8 20.6 102.5 57.9 139.8 37.3 37.3 87 57.9 139.8 57.9 52.8 0 102.5-20.6 139.8-57.9 37.3-37.3 57.9-87 57.9-139.8 0-45.2-14.9-87.7-42.9-123l15.6-12.5c30.9 38.9 47.3 85.7 47.3 135.5 0 58.1-22.6 112.8-63.8 153.9-41.1 41.1-95.8 63.8-153.9 63.8z" fill="#3B4552" p-id="3015"></path><path d="M502.1 660.5c-35.1 0-68.1-13.7-92.9-38.5-24.8-24.8-38.5-57.8-38.5-92.9 0-35.1 13.7-68.1 38.5-92.9 24.8-24.8 57.8-38.5 92.9-38.5 26.7 0 52.4 8 74.3 23l-11.3 16.5c-18.6-12.8-40.4-19.5-63-19.5-29.7 0-57.7 11.6-78.8 32.6-21 21-32.6 49-32.6 78.8 0 29.8 11.6 57.7 32.6 78.8 21 21 49 32.6 78.8 32.6s57.7-11.6 78.8-32.6c21-21 32.6-49 32.6-78.8 0-22.6-6.7-44.4-19.5-62.9l16.5-11.3c15 21.9 23 47.6 23 74.3 0 35.1-13.7 68.1-38.5 92.9-24.8 24.8-57.8 38.4-92.9 38.4z" fill="#3B4552" p-id="3016"></path><path d="M502.1 570.7c-11.1 0-21.5-4.3-29.4-12.2-7.8-7.8-12.2-18.3-12.2-29.4 0-11.1 4.3-21.5 12.2-29.4 7.8-7.8 18.3-12.2 29.4-12.2v20c-5.8 0-11.2 2.2-15.2 6.3-4.1 4.1-6.3 9.5-6.3 15.2s2.2 11.2 6.3 15.2c4.1 4.1 9.5 6.3 15.2 6.3s11.2-2.2 15.2-6.3c4.1-4.1 6.3-9.5 6.3-15.2h20c0 11.1-4.3 21.5-12.2 29.4-7.8 8-18.2 12.3-29.3 12.3z" fill="#3B4552" p-id="3017"></path><path d="M676.5 342.4c0 1.3 0.4 2.4 1.2 3.2 0.8 0.8 2.2 1.4 4.2 1.8v-9.8c-1.8 0.1-3.2 0.6-4 1.4-1 0.8-1.4 2-1.4 3.4zM684.3 351v11c1.8 0 3.2-0.6 4.1-1.5 1-1 1.5-2.2 1.5-3.7s-0.4-2.7-1.2-3.7c-0.8-1-2.2-1.6-4.4-2.1z" fill="#FF960B" p-id="3018"></path><path d="M741.6 336.2h-33.8l2.9-2.9c8.4-8.4-4.4-21.2-12.8-12.8L695 323v-33.9c0-3.8-4.2-5.5-6.9-2.8l-37.7 38.4c-0.8 0.8-1.2 1.8-1.2 3V370c-51 51-102.6 101.8-153.5 152.8-8.4 8.4 4.4 21.2 12.8 12.8L661.1 384l42.6-0.2c1.2 0 2.2-0.4 3-1.3L745 343c2.7-2.7 0.4-6.8-3.4-6.8zM691 362.3c-1.4 1.4-3.7 2.2-6.6 2.4v4.1h-2.5v-4.1c-3.3-0.3-5.6-1.1-7-2.7-1.4-1.5-2.1-3.7-2.1-6.5h3.2c0.1 2.1 0.5 3.6 1.3 4.6 0.8 1 2.3 1.6 4.5 1.8v-11.4c-3-0.5-5.1-1.4-6.5-2.7-1.3-1.3-2-3-2-5.2 0-2.3 0.7-4.1 2.1-5.5 1.4-1.4 3.5-2.2 6.3-2.4v-3.6h2.5v3.6c2.8 0.3 4.8 1.1 6.1 2.4 1.2 1.3 1.9 3.1 1.9 5.3h-3.1c-0.2-1.6-0.7-2.8-1.4-3.6-0.7-0.8-1.8-1.2-3.5-1.4v10.3c0.9 0.3 1.7 0.5 2.3 0.6 0.6 0.2 1.1 0.3 1.5 0.5 0.4 0.2 0.7 0.3 0.9 0.5 0.3 0.2 0.5 0.3 0.9 0.5 1.1 0.8 2 1.6 2.5 2.7 0.5 1 0.8 2.3 0.8 3.8 0 2.6-0.7 4.6-2.1 6z" fill="#FF960B" p-id="3019"></path></svg>