<?xml version="1.0" standalone="no"?><!DOCTYPE svg PUBLIC "-//W3C//DTD SVG 1.1//EN" "http://www.w3.org/Graphics/SVG/1.1/DTD/svg11.dtd"><svg t="1780901011185" class="icon" viewBox="0 0 1024 1024" version="1.1" xmlns="http://www.w3.org/2000/svg" p-id="4554" xmlns:xlink="http://www.w3.org/1999/xlink" width="200" height="200"><path d="M102.4 1024a51.2 51.2 0 0 1-51.2-51.2V153.6a51.2 51.2 0 0 1 51.2-51.2h204.8V0h51.2v102.4h307.2V0h51.2v102.4h204.8a51.2 51.2 0 0 1 51.2 51.2v819.2a51.2 51.2 0 0 1-51.2 51.2z m0-51.2h819.2V358.4H102.4zM921.6 307.2V153.6h-204.8v102.4h-51.2V153.6H358.4v102.4H307.2V153.6H102.4v153.6zM440.0128 869.5808L561.0496 563.2H358.4v-51.2h256v51.2l-121.088 306.3808z" fill="#0BB27A" p-id="4555"></path></svg>