<?xml version="1.0" standalone="no"?><!DOCTYPE svg PUBLIC "-//W3C//DTD SVG 1.1//EN" "http://www.w3.org/Graphics/SVG/1.1/DTD/svg11.dtd"><svg t="1780671171455" class="icon" viewBox="0 0 1024 1024" version="1.1" xmlns="http://www.w3.org/2000/svg" p-id="21971" xmlns:xlink="http://www.w3.org/1999/xlink" width="200" height="200"><path d="M651.648128 791.1424L416.512128 83.1488c-14.1312-42.5984-74.1632-42.5984-88.3072 0L199.180928 471.68H46.540928A46.6304 46.6304 0 0 0 0.000128 518.4a46.6304 46.6304 0 0 0 46.5408 46.72h186.1888a46.5664 46.5664 0 0 0 44.16-31.9488l95.4752-287.5136 235.1104 707.9936c14.144 42.5984 74.176 42.5984 88.32 0l129.024-388.5312h152.64A46.6304 46.6304 0 0 0 1024.000128 518.4a46.6304 46.6304 0 0 0-46.5408-46.72H791.270528a46.5664 46.5664 0 0 0-44.16 31.9488L651.648128 791.1424z" fill="#000000" p-id="21972"></path></svg>